<?xml version="1.0" standalone="no"?>
<!DOCTYPE svg PUBLIC "-//W3C//DTD SVG 20010904//EN"
 "http://www.w3.org/TR/2001/REC-SVG-20010904/DTD/svg10.dtd">
<svg version="1.0" xmlns="http://www.w3.org/2000/svg"
 width="32.000000pt" height="32.000000pt" viewBox="0 0 32.000000 32.000000"
 preserveAspectRatio="xMidYMid meet">

<g transform="translate(0.000000,32.000000) scale(0.100000,-0.100000)"
fill="#000000" stroke="none">
<path d="M59 231 l21 -29 -25 -71 -24 -71 48 0 c42 0 50 3 55 23 l7 22 16 -23
c12 -17 25 -22 59 -22 45 0 53 10 35 39 -7 11 -1 25 20 48 33 39 37 73 11 96
-15 14 -40 17 -131 17 l-112 0 20 -29z m205 3 c24 -24 19 -53 -15 -85 -26 -24
-29 -31 -19 -49 9 -16 8 -22 -5 -26 -26 -10 -45 4 -64 48 l-18 43 -15 -45
c-12 -37 -20 -46 -41 -48 -32 -4 -34 7 -11 69 9 26 13 57 9 77 l-6 32 85 0
c64 0 88 -4 100 -16z"/>
<path d="M150 185 c0 -10 10 -15 30 -15 20 0 30 5 30 15 0 10 -10 15 -30 15
-20 0 -30 -5 -30 -15z"/>
</g>
</svg>
