<?xml version="1.0" encoding="UTF-8" standalone="yes"?>
<svg version="1.2" baseProfile="tiny-ps" viewBox="0 0 300 300" xmlns="http://www.w3.org/2000/svg">
  <title>bimi-svg-tiny-12-ps</title>
  <g>
    <g fill="#fafcff" transform="matrix(.1 0 0 -.1 0 300)">
      <path d="M0 1500V0h3000v3000H0V1500z"/>
    </g>
    <g fill="#05e0ff" transform="matrix(.1 0 0 -.1 0 300)">
      <path d="M585 2976c-69-22-125-56-172-102l-45-45-26-57-27-57V295l27-57 27-57 48-52 48-51 60-32 60-31h210l60 31 60 32 48 51 48 52 27 57 27 57 3 258 3 257 195 2c107 1 214 2 238 3h44l244-330 243-329 50-38 50-38 68-21 69-22 68 5 68 5 66 31 65 31 43 44 43 44 30 59 30 59v200l-22 48-23 49-191 259-190 259 60 71c121 140 186 256 237 425l28 89v175l1 175-19 75c-25 101-70 208-129 310l-50 85-116 115-116 115-81 48c-108 64-222 112-341 144l-98 27-505 3-505 2-40-13zm1030-740 60-30 50-50 51-51 22-46c13-26 27-72 32-103l9-57-10-57c-14-72-39-122-92-179-49-54-93-83-162-108l-50-18-227-5-228-4v743l243-3 242-3 60-29z"/>
    </g>
    <g fill="#07b5ff" transform="matrix(.1 0 0 -.1 0 300)">
      <path d="M628 2983c7-3 16-2 19 1 4 3-2 6-13 5l-19-1 13-5zm132-6 55-13 53-29 53-29 39-42c21-23 50-65 65-93l25-51 7-60 6-60h-12c-6 0-41-14-78-31-131-60-169-78-263-119-52-23-117-52-145-64-27-13-93-42-147-66l-96-42-7-122c-3-66-5-512-3-991l3-870 27-57 27-57 48-52 48-51 60-32 60-31h210l60 31 60 32 48 51 48 52 27 57 27 57 3 452 3 452 27 5c15 4 153 13 307 21s359 19 455 25c96 5 253 14 348 21l173 12 30 41c17 23 53 86 80 141l49 100 22 80 21 80 1 170 1 170-19 75c-25 101-70 208-129 310l-50 85-116 115-116 115-81 48c-108 64-222 112-341 144l-98 27-465 2-465 3 55-12zm855-741 60-30 50-50 51-51 22-46c13-26 27-72 32-103l9-57-10-57-11-57-26-48c-31-58-90-119-146-152l-41-24-65-15-65-16h-405v741l243-3 242-3 60-29zM449 2906c-65-49-130-152-129-203l1-18 18 53 18 53 34 42c30 38 47 54 98 94 9 7 13 13 10 13s-26-15-50-34zm-138-242 1-19 5 13c3 7 2 16-1 19-3 4-6-2-5-13zm1903-1561c-155-135-361-232-568-268-49-8-91-17-93-19-6-6 356-486 371-492 7-3 52 0 102 6 49 6 145 17 214 25 312 37 367 44 402 50l37 7 5 14c7 18-9 103-28 148-12 30-132 198-346 487l-56 76-40-34z"/>
    </g>
    <g fill="#0b88ff" transform="matrix(.1 0 0 -.1 0 300)">
      <path d="M790 2972c80-27 109-44 164-99l49-48 24-53 25-52 10-68 10-67-4-155-3-155 245-5 245-5 55-26 55-26 52-47 52-47 33-67 33-67v-170l-32-65c-18-36-47-80-65-99l-32-34 110 6c60 4 231 14 379 22 149 8 291 17 317 21l48 7 12 41 12 41v150l1 150-13 55c-39 158-90 274-175 398l-50 73-97 92-97 92-80 48c-106 63-220 112-340 144l-98 27-450 3-450 3 55-18zm-331-59-14-18 18 14c9 7 17 15 17 17 0 8-8 3-21-13zm-62-55c-39-49-61-87-54-95 3-2 8 5 12 16 3 12 24 43 46 71 22 27 37 50 35 50-3 0-20-19-39-42zm448-848c-110-49-209-94-220-99-18-9-190-86-271-121l-32-14-7-250c-4-138-5-471-3-741l3-490 27-57 27-57 48-52 48-51 60-32 60-31h210l60 31 60 32 48 51 48 52 27 57 27 57 3 650c3 639-4 1155-17 1155-3-1-96-41-206-90zm1374-906c-13-14-71-57-127-95l-104-68-101-40c-93-35-177-58-294-79l-42-7 96-127 97-128h40c23 1 73 5 111 10 121 15 558 68 648 78l58 7-29 40c-256 356-315 435-321 435-4 0-18-12-32-26z"/>
    </g>
    <g fill="#0d57ff" transform="matrix(.1 0 0 -.1 0 300)">
      <path d="M795 2972c120-42 187-101 239-212l31-65 3-207 4-208h413l68-19 69-19 54-37c62-43 102-89 136-159l23-48 53 6c29 3 182 13 339 21 158 8 302 18 320 21l34 6-5 17c-3 9-12 47-21 85-43 189-153 376-307 522l-71 66-87 58-88 57-85 36c-47 19-132 48-188 63l-104 28-440 3-440 3 50-18zM684 1436l-361-161-8-415-8-415 7-71 6-72 21-56 20-56 50-55 51-55 66-32 67-33h190l67 33 66 32 51 55 50 55 23 58 23 57 3 465c4 458-4 831-17 829-3-1-169-74-367-163zm1511-358c-63-51-196-134-255-160-111-49-283-98-342-98-15 0-29-4-32-9l-6-9 13-5c8-3 45-1 83 3s112 13 164 19 127 16 165 21c39 5 151 19 250 31s181 22 183 23c2 3-111 166-147 212l-16 21-60-49z"/>
    </g>
    <g fill="#111fff" transform="matrix(.1 0 0 -.1 0 300)">
      <path d="M821 2967c69-29 105-54 154-108l37-42 27-56 26-56 3-149 4-149 126 6c70 4 244 13 387 22 143 8 383 21 534 29 150 8 276 17 279 20 8 9-77 117-142 180-155 150-350 252-581 303l-70 16-420 3-420 4 56-23zm189-1981c-25-12-90-41-145-65s-127-56-160-71-94-42-135-60-104-46-140-62c-36-17-75-34-87-39l-23-9V324l15-51 15-51 33-48 32-48 50-38 50-38 64-20 63-20h94l55 16c104 30 185 98 234 194l25 49 8 63 8 63-5 306-6 307-45-22z"/>
    </g>
  </g>
</svg>